<svg width="72" height="71" viewBox="0 0 72 71" fill="none" xmlns="http://www.w3.org/2000/svg">
<line x1="1.5" y1="-1.5" x2="11.3402" y2="-1.5" transform="matrix(0.990569 0.140674 -0.14384 0.989087 40.4574 27.2698)" stroke="#7DACDA" stroke-width="3" stroke-linecap="round"/>
<line x1="1.5" y1="-1.5" x2="11.3402" y2="-1.5" transform="matrix(0.14384 -0.989087 0.990569 0.140674 53.1766 29.0761)" stroke="#7DACDA" stroke-width="3" stroke-linecap="round"/>
<path fill-rule="evenodd" clip-rule="evenodd" d="M40.0871 53.9467C39.5016 54.1206 38.9021 54.2674 38.2897 54.3854C28.2472 56.3205 18.568 49.7679 16.6612 39.7638C14.7544 29.7598 21.3383 20.0735 31.3808 18.1384C39.2528 16.6216 46.9014 20.3199 50.7584 26.8076C51.293 26.6536 51.8392 26.5223 52.3961 26.4149C52.5304 26.3891 52.6645 26.3647 52.7986 26.3419C48.637 18.8036 39.9482 14.4508 31.0064 16.1738C19.8845 18.3168 12.5827 29.0478 14.6973 40.1422C16.812 51.2366 27.5423 58.4931 38.6642 56.3501C39.559 56.1776 40.4292 55.9496 41.2716 55.6703C40.846 55.1215 40.4502 54.5463 40.0871 53.9467Z" fill="#7DACDA"/>
<path fill-rule="evenodd" clip-rule="evenodd" d="M40.0871 53.9467C39.5016 54.1206 38.9021 54.2674 38.2897 54.3854C28.2472 56.3205 18.568 49.7679 16.6612 39.7638C14.7544 29.7598 21.3383 20.0735 31.3808 18.1384C39.2528 16.6216 46.9014 20.3199 50.7584 26.8076C51.293 26.6536 51.8392 26.5223 52.3961 26.4149C52.5304 26.3891 52.6645 26.3647 52.7986 26.3419C48.637 18.8036 39.9482 14.4508 31.0064 16.1738C19.8845 18.3168 12.5827 29.0478 14.6973 40.1422C16.812 51.2366 27.5423 58.4931 38.6642 56.3501C39.559 56.1776 40.4292 55.9496 41.2716 55.6703C40.846 55.1215 40.4502 54.5463 40.0871 53.9467Z" fill="#7DACDA"/>
<path fill-rule="evenodd" clip-rule="evenodd" d="M40.0871 53.9467C39.5016 54.1206 38.9021 54.2674 38.2897 54.3854C28.2472 56.3205 18.568 49.7679 16.6612 39.7638C14.7544 29.7598 21.3383 20.0735 31.3808 18.1384C39.2528 16.6216 46.9014 20.3199 50.7584 26.8076C51.293 26.6536 51.8392 26.5223 52.3961 26.4149C52.5304 26.3891 52.6645 26.3647 52.7986 26.3419C48.637 18.8036 39.9482 14.4508 31.0064 16.1738C19.8845 18.3168 12.5827 29.0478 14.6973 40.1422C16.812 51.2366 27.5423 58.4931 38.6642 56.3501C39.559 56.1776 40.4292 55.9496 41.2716 55.6703C40.846 55.1215 40.4502 54.5463 40.0871 53.9467Z" fill="#7DACDA"/>
<path fill-rule="evenodd" clip-rule="evenodd" d="M40.0871 53.9467C39.5016 54.1206 38.9021 54.2674 38.2897 54.3854C28.2472 56.3205 18.568 49.7679 16.6612 39.7638C14.7544 29.7598 21.3383 20.0735 31.3808 18.1384C39.2528 16.6216 46.9014 20.3199 50.7584 26.8076C51.293 26.6536 51.8392 26.5223 52.3961 26.4149C52.5304 26.3891 52.6645 26.3647 52.7986 26.3419C48.637 18.8036 39.9482 14.4508 31.0064 16.1738C19.8845 18.3168 12.5827 29.0478 14.6973 40.1422C16.812 51.2366 27.5423 58.4931 38.6642 56.3501C39.559 56.1776 40.4292 55.9496 41.2716 55.6703C40.846 55.1215 40.4502 54.5463 40.0871 53.9467Z" fill="#7DACDA"/>
</svg>
